# xmcd
#
# Track frame offsets:
#	150
#	12642
#	26014
#	42678
#	59090
#	68897
#	81669
#	90728
#	106152
#	118109
#	134381
#	143920
#
# Disc length: 2087 seconds
#
# Revision: 0
# Processed by: cddbd v1.5.2PL0 Copyright (c) Steve Scherf et al.
# Submitted via: EasyCDDAExtractor 10.1.0.1
#
DISCID=b808250c
DTITLE=Suzanne Prentice - Paper Roses
DYEAR=1900
DGENRE=Country
TTITLE0=Paper roses
TTITLE1=Talking in your sleep
TTITLE2=You light up my life
TTITLE3=I honestly love you
TTITLE4=Satin sheets 
TTITLE5=Banks of the ohio
TTITLE6=The happiest girl in the whole USA
TTITLE7=You needed me
TTITLE8=Don't it make my brown eyes blue
TTITLE9=Together again
TTITLE10=When will I bi loved
TTITLE11=I don't believe my heart can stand another you
EXTD=
EXTT0=
EXTT1=
EXTT2=
EXTT3=
EXTT4=
EXTT5=
EXTT6=
EXTT7=
EXTT8=
EXTT9=
EXTT10=
EXTT11=
PLAYORDER=
